<?xml version="1.0" encoding="utf-8"?>
<!-- Generator: Adobe Illustrator 22.0.1, SVG Export Plug-In . SVG Version: 6.00 Build 0)  -->
<svg version="1.1" id="Layer_1" xmlns="http://www.w3.org/2000/svg" xmlns:xlink="http://www.w3.org/1999/xlink" x="0px" y="0px"
	 viewBox="0 0 167.7 152.8" style="enable-background:new 0 0 167.7 152.8;" xml:space="preserve">
<style type="text/css">
	.st0{fill:#FFFFFF;}
	.st1{fill:none;stroke:#FFFFFF;stroke-miterlimit:10;}
</style>
<g>
	<path class="st0" d="M61.3,60.8V44.2l34.8-18.1V121h-18V51.7L61.3,60.8z"/>
</g>
<path class="st1" d="M79.4,149.7c12.2,0.8,24.8-1.5,36.6-7.2c36.3-17.7,51.4-61.5,33.8-97.8S88.3-6.8,52,10.9
	c-6.6,3.2-12.6,7.3-17.7,12.1"/>
<g>
	<g>
		<path class="st0" d="M33.1,33.9c-0.9,1-1.9,1.2-2.7,0.5c-0.3-0.3-0.5-0.6-0.6-1c0-0.2,0-0.4,0.1-0.8c-0.3,0.2-0.5,0.3-0.7,0.4
			c-0.5,0.1-0.9-0.1-1.3-0.4c-0.5-0.4-0.7-1-0.6-1.5c0.1-0.5,0.3-0.8,0.8-1.5l1.2-1.4l5.1,4.3L33.1,33.9z M29.2,29.3l-0.5,0.6
			C28.2,30.5,28,30.7,28,31c-0.1,0.4,0.1,0.7,0.4,1c0.6,0.5,1.2,0.4,1.9-0.4l0.7-0.8L29.2,29.3z M31.5,31.2l-0.5,0.7
			c-0.3,0.4-0.5,0.7-0.5,1c0,0.3,0.2,0.7,0.4,0.9c0.3,0.3,0.8,0.4,1.1,0.2c0.2-0.1,0.5-0.3,0.8-0.8l0.4-0.5L31.5,31.2z"/>
		<path class="st0" d="M22.6,36.9l0.4-0.7l5.7,3.5l-1,1.5c-0.8,1.2-1.8,1.5-2.9,0.9c-0.6-0.4-1-1-0.9-1.7c0-0.4,0.1-0.7,0.4-1.2
			L20.7,40l0.6-0.9l3.7-0.7L22.6,36.9z M25,39.4c-0.5,0.9-0.4,1.6,0.3,2c0.7,0.4,1.4,0.3,1.8-0.5l0.5-0.8l-2.2-1.4L25,39.4z"/>
		<path class="st0" d="M19,46.5l-1.2-1.2l0.3-0.8l5.1,5l-0.4,0.9L15.8,50l0.4-0.9l1.6,0.1L19,46.5z M22.2,49.5L19.6,47l-1,2.3
			L22.2,49.5z"/>
		<path class="st0" d="M13.8,56l0.2-0.8l6.4,1.7l-0.2,0.7l-5.8,2.1l4.8,1.3l-0.2,0.8l-6.4-1.7l0.2-0.7l5.9-2.1L13.8,56z"/>
		<path class="st0" d="M18.2,67.1L18,68.9c-0.2,2-1.6,3.1-3.6,2.8c-1.1-0.1-2-0.6-2.5-1.3c-0.5-0.6-0.6-1.4-0.5-2.4l0.2-1.6
			L18.2,67.1z M12.2,67.3l0,0.3c-0.1,1.1-0.1,1.6,0.3,2.1c0.4,0.6,1.1,1,2.1,1.1c1.6,0.2,2.6-0.6,2.8-2.1l0.1-0.9L12.2,67.3z"/>
		<path class="st0" d="M11.4,85.4l-0.1-0.8l6.6-0.9l0.2,1.8c0.2,1.4-0.4,2.4-1.6,2.5c-0.7,0.1-1.4-0.2-1.8-0.7
			c-0.2-0.3-0.3-0.6-0.4-1.2L11.9,89L11.7,88l2.4-2.9L11.4,85.4z M14.8,85.8c0.1,1,0.7,1.5,1.5,1.4c0.8-0.1,1.2-0.7,1.1-1.6l-0.1-1
			L14.7,85L14.8,85.8z"/>
		<path class="st0" d="M16.8,94.3l0.7,2.5L16.8,97l-0.7-2.5L14,95.1l0.7,2.5L14,97.8L13,94.4l6.4-1.8l0.9,3.3l-0.7,0.2L19,93.7
			L16.8,94.3z"/>
		<path class="st0" d="M19.6,102.6l1,2.4l-0.7,0.3l-1-2.4l-2.8,1.1l-0.3-0.8l6.2-2.5l1.3,3.2l-0.7,0.3l-1-2.4L19.6,102.6z"/>
		<path class="st0" d="M20.1,112.2l-0.4-0.7l5.9-3.2l0.4,0.7L20.1,112.2z"/>
		<path class="st0" d="M23.7,118.1l-0.5-0.7l5.4-3.9l0.5,0.6l-2,5.8l4.1-2.9l0.5,0.7l-5.4,3.9l-0.4-0.6l2-5.9L23.7,118.1z"/>
		<path class="st0" d="M33.5,124.3l1.8,1.9l-0.5,0.5l-1.8-1.9l-1.6,1.6l1.8,1.9l-0.5,0.5l-2.4-2.5l4.8-4.6l2.4,2.5l-0.5,0.5
			l-1.8-1.9L33.5,124.3z"/>
		<path class="st0" d="M37.7,133.4l-0.7-0.5l4-5.3l0.7,0.5l-1.1,5.5l5-2.5l0.7,0.5l-4,5.3l-0.7-0.5l3-3.9l-5,2.4l1.1-5.4L37.7,133.4
			z"/>
		<path class="st0" d="M50.1,137.3l2.3,1.3l-0.3,0.6l-2.3-1.3l-1.1,2l2.3,1.3l-0.3,0.6l-3-1.7l3.2-5.9l3,1.7l-0.3,0.6l-2.3-1.3
			L50.1,137.3z"/>
		<path class="st0" d="M56.8,144.6l-0.8-0.3l2.3-6.3l0.7,0.3l1.6,5.9l1.8-4.7l0.8,0.3l-2.3,6.3l-0.7-0.3l-1.6-6L56.8,144.6z"/>
		<path class="st0" d="M68.6,148.2l-0.8-0.2l1.3-5.8l-1.7-0.4l0.2-0.7l4.1,0.9l-0.2,0.7l-1.7-0.4L68.6,148.2z"/>
	</g>
</g>
</svg>
