<?xml version="1.0" encoding="utf-8"?>
<!-- Generator: Adobe Illustrator 22.0.1, SVG Export Plug-In . SVG Version: 6.00 Build 0)  -->
<svg version="1.1" id="Layer_1" xmlns="http://www.w3.org/2000/svg" xmlns:xlink="http://www.w3.org/1999/xlink" x="0px" y="0px"
	 viewBox="0 0 167.7 152.8" style="enable-background:new 0 0 167.7 152.8;" xml:space="preserve">
<style type="text/css">
	.st0{fill:none;stroke:#2A2E2F;stroke-miterlimit:10;}
	.st1{fill:none;stroke:#231F20;stroke-miterlimit:10;}
</style>
<g>
	<g>
		<path class="st0" d="M58.7,43.5V28.1h56.6L89.5,62.8c15.1,1.3,24.8,12.3,24.8,28c0,18.1-13.1,31.5-30.9,31.5
			c-10.3,0-19.4-4.5-24.5-12.3c-2.8-4.2-3.9-7.8-4.7-14.8l16-0.6c1.1,7.2,6,11.6,12.8,11.6c7.9,0,14.2-6.1,14.2-14.2
			c0-8.2-6-14.2-14.4-14.2c-3.2,0-5.9,0.7-8.5,2.4l-10-8.5l21.2-28.3H58.7z"/>
	</g>
	<g>
		<g>
			<path d="M33.4,35.4c-0.9,1.1-1.8,1.3-2.7,0.5c-0.3-0.3-0.5-0.6-0.6-1c0-0.2,0-0.4,0.1-0.8c-0.3,0.2-0.5,0.3-0.7,0.4
				c-0.5,0.1-0.9,0-1.3-0.4c-0.5-0.4-0.7-0.9-0.7-1.5c0.1-0.5,0.3-0.9,0.8-1.5l1.2-1.5l5.2,4.2L33.4,35.4z M29.4,30.8l-0.5,0.7
				c-0.4,0.5-0.6,0.8-0.6,1.1c-0.1,0.4,0.1,0.7,0.4,1c0.6,0.5,1.2,0.4,1.9-0.5l0.7-0.8L29.4,30.8z M31.7,32.7l-0.5,0.7
				c-0.3,0.4-0.5,0.7-0.5,1c0,0.3,0.2,0.7,0.5,0.9c0.3,0.3,0.8,0.3,1.1,0.2c0.2-0.1,0.5-0.3,0.8-0.8l0.4-0.5L31.7,32.7z"/>
			<path d="M23,38.6l0.4-0.7l5.7,3.4l-0.9,1.6c-0.7,1.2-1.8,1.6-2.8,1c-0.6-0.4-1-1-0.9-1.7c0-0.4,0.1-0.7,0.4-1.2l-3.7,0.8l0.6-0.9
				l3.7-0.8L23,38.6z M25.4,41c-0.5,0.9-0.4,1.6,0.3,2c0.7,0.4,1.4,0.2,1.8-0.6l0.5-0.8l-2.2-1.3L25.4,41z"/>
			<path d="M19.6,48.3l-1.2-1.2l0.3-0.8l5.2,4.9l-0.4,0.9l-7.1-0.3l0.4-0.9l1.6,0.1L19.6,48.3z M22.8,51.2l-2.6-2.4l-1,2.3
				L22.8,51.2z"/>
			<path d="M14.6,57.9l0.2-0.8l6.5,1.6L21,59.4l-5.7,2.2l4.9,1.2L20,63.7l-6.5-1.6l0.2-0.7l5.8-2.3L14.6,57.9z"/>
			<path d="M19.1,68.9L19,70.6c-0.2,2-1.5,3.1-3.5,2.9c-1.1-0.1-2-0.6-2.6-1.3c-0.5-0.6-0.6-1.4-0.6-2.4l0.1-1.6L19.1,68.9z
				 M13.1,69.2l0,0.3c-0.1,1.1,0,1.6,0.3,2.1c0.4,0.6,1.1,1,2.1,1.1c1.6,0.1,2.6-0.6,2.7-2.1l0.1-0.9L13.1,69.2z"/>
			<path d="M14.3,86.5c-0.7,0.2-1.1,0.6-1,1.3c0.1,0.7,0.6,1.2,1.3,1.1c0.6-0.1,0.8-0.4,1-1.5c0.2-0.8,0.2-1.1,0.5-1.4
				c0.3-0.4,0.7-0.6,1.2-0.7c1.1-0.2,2,0.5,2.2,1.7c0.2,1.2-0.5,2-1.6,2.2l-0.1-0.8c0.3-0.1,0.5-0.1,0.7-0.3c0.3-0.2,0.4-0.6,0.3-1
				c-0.1-0.7-0.6-1.1-1.2-1c-0.3,0-0.6,0.2-0.7,0.5c-0.1,0.2-0.2,0.4-0.3,1.1c-0.1,0.7-0.3,1.1-0.5,1.4c-0.3,0.3-0.7,0.6-1.1,0.6
				c-1.1,0.2-2-0.6-2.2-1.8c-0.1-0.8,0.1-1.5,0.6-1.9c0.2-0.2,0.5-0.3,0.8-0.4l0.1,0L14.3,86.5z"/>
			<path d="M17.1,95.7c-0.8,0.2-1.2,0.5-1.4,0.9c-0.2,0.3-0.2,0.9-0.1,1.3c0.1,0.4,0.4,0.8,0.8,1c0.4,0.2,0.8,0.2,1.6,0l3.8-1.1
				l0.2,0.8l-3.8,1.1c-1,0.3-1.6,0.3-2.1,0c-0.6-0.3-1.1-0.8-1.3-1.6c-0.2-0.7-0.1-1.5,0.3-2.1c0.3-0.5,0.8-0.8,1.8-1.1l3.8-1.1
				l0.2,0.8L17.1,95.7z"/>
			<path d="M18.2,106.8l-0.4-0.8l6.1-2.8l0.7,1.6c0.7,1.4,0.4,2.5-0.8,3.1c-0.6,0.3-1.2,0.3-1.8,0c-0.4-0.2-0.8-0.6-1.1-1.3
				l-0.4-0.9L18.2,106.8z M21.6,106.3c0.2,0.3,0.3,0.5,0.5,0.7c0.4,0.4,0.9,0.5,1.5,0.3c0.5-0.2,0.8-0.7,0.7-1.3
				c0-0.3-0.1-0.5-0.3-0.9l-0.3-0.7l-2.4,1.1L21.6,106.3z"/>
			<path d="M22.8,115.5l-0.4-0.7l5.6-3.6l1,1.5c0.8,1.3,0.7,2.5-0.4,3.2c-0.6,0.4-1.2,0.4-1.7,0.3c-0.5-0.2-0.9-0.5-1.3-1.1
				l-0.6-0.9L22.8,115.5z M26,114.5c0.2,0.3,0.3,0.5,0.5,0.6c0.4,0.3,1,0.4,1.5,0.1s0.7-0.8,0.6-1.4c-0.1-0.3-0.2-0.5-0.4-0.9
				l-0.4-0.6l-2.3,1.4L26,114.5z"/>
			<path d="M35.8,123.3c-0.1,0.8-0.5,1.5-1.3,2.1c-0.8,0.7-1.8,1-2.7,0.8c-0.8-0.1-1.5-0.5-2-1.1c-0.6-0.7-0.9-1.8-0.7-2.8
				c0.1-0.7,0.5-1.4,1.2-2c1.5-1.3,3.6-1.2,4.8,0.2C35.6,121.4,35.9,122.4,35.8,123.3z M30.8,121.1c-1.2,1-1.4,2.5-0.5,3.6
				c0.4,0.5,1.1,0.8,1.8,0.8c0.6,0,1.3-0.3,1.8-0.7c0.7-0.6,1-1.2,1-1.9c0-0.6-0.2-1.2-0.6-1.7C33.5,120.2,32,120.1,30.8,121.1z"/>
			<path d="M36.9,132.2l-0.6-0.5l4.3-5.1l1.4,1.2c1.1,0.9,1.3,2,0.5,3c-0.5,0.6-1.1,0.8-1.8,0.7c-0.4-0.1-0.6-0.2-1.1-0.6l0.2,3.8
				l-0.8-0.7l-0.2-3.8L36.9,132.2z M39.7,130.2c0.8,0.7,1.5,0.7,2,0c0.5-0.6,0.4-1.3-0.3-1.9l-0.7-0.6l-1.7,2L39.7,130.2z"/>
			<path d="M45.7,138.8l-0.7-0.5l3.2-5l-1.4-0.9l0.4-0.6l3.5,2.3l-0.4,0.6l-1.4-0.9L45.7,138.8z"/>
		</g>
	</g>
	<path class="st1" d="M55.8,143.3c8.8,3.8,18.5,5.9,28.7,5.9c40.3,0,73-32.7,73-73s-32.7-73-73-73c-19.2,0-36.7,7.4-49.7,19.6"/>
</g>
</svg>
