<?xml version="1.0" encoding="utf-8"?>
<!-- Generator: Adobe Illustrator 22.0.1, SVG Export Plug-In . SVG Version: 6.00 Build 0)  -->
<svg version="1.1" id="Layer_1" xmlns="http://www.w3.org/2000/svg" xmlns:xlink="http://www.w3.org/1999/xlink" x="0px" y="0px"
	 viewBox="0 0 116.3 13.9" style="enable-background:new 0 0 116.3 13.9;" xml:space="preserve">
<style type="text/css">
	.st0{fill:#2A2E2F;}
</style>
<g>
	<g>
		<path class="st0" d="M9.3,4.3l-3.4,9.2H3.3L0,4.3h2.6l2,5.5l2.1-5.5H9.3z"/>
		<path class="st0" d="M17.4,4.3H20v9.2h-2.5v-1.3c-0.9,1.1-1.9,1.6-3.2,1.6c-2.6,0-4.4-2-4.4-4.8c0-2.9,2-5,4.6-5
			c1.3,0,2.1,0.4,3,1.5V4.3z M12.5,9c0,1.6,1.1,2.8,2.4,2.8c1.4,0,2.6-1.3,2.6-2.9c0-1.6-1-2.8-2.5-2.8C13.5,6.1,12.5,7.3,12.5,9z"
			/>
		<path class="st0" d="M25,4.3v1.1C25.7,4.4,26.3,4,27.5,4c0.9,0,1.7,0.3,2.3,0.9c0.6,0.6,0.8,1.3,0.8,2.9v5.8h-2.5V7.8
			c0-0.5-0.1-0.8-0.2-1.1c-0.2-0.4-0.7-0.6-1.2-0.6c-1,0-1.6,0.7-1.6,1.8v5.6h-2.5V4.3H25z"/>
		<path class="st0" d="M35.1,9.6c0.2,1.3,1.2,2.1,2.4,2.1c0.9,0,1.7-0.5,2.1-1.2l2.3,0.6c-0.9,1.8-2.5,2.8-4.5,2.8
			c-2.9,0-5-2.1-5-4.9c0-2.9,2-4.9,4.9-4.9c3,0,5,2.1,5,5l0,0.5H35.1z M39.7,8.1c-0.2-1.2-1.1-2-2.4-2c-1.2,0-2,0.7-2.3,2H39.7z"/>
		<path class="st0" d="M48.1,7V6.8c0-0.6-0.5-1-1.2-1c-0.6,0-1,0.3-1,0.8c0,0.2,0.1,0.5,0.3,0.6c0.3,0.2,0.3,0.2,1.6,0.6
			c2.1,0.6,2.9,1.5,2.9,3c0,1.8-1.4,3-3.6,3c-2.2,0-3.5-1.1-3.6-3h2.4C46,11.6,46.3,12,47,12c0.6,0,1-0.4,1-0.9
			c0-0.6-0.4-0.8-1.7-1.2c-2-0.6-2.9-1.5-2.9-3C43.5,5.2,44.9,4,47,4c2.1,0,3.4,1.1,3.5,3H48.1z"/>
		<path class="st0" d="M56.5,7V6.8c0-0.6-0.5-1-1.2-1c-0.6,0-1,0.3-1,0.8c0,0.2,0.1,0.5,0.3,0.6c0.3,0.2,0.3,0.2,1.6,0.6
			c2.1,0.6,2.9,1.5,2.9,3c0,1.8-1.4,3-3.6,3c-2.2,0-3.5-1.1-3.6-3h2.4c0.1,0.8,0.5,1.2,1.2,1.2c0.6,0,1-0.4,1-0.9
			c0-0.6-0.4-0.8-1.7-1.2c-2-0.6-2.9-1.5-2.9-3c0-1.8,1.4-2.9,3.6-2.9c2.1,0,3.4,1.1,3.5,3H56.5z"/>
		<path class="st0" d="M68,4.3h2.5v9.2H68v-1.3c-0.9,1.1-1.9,1.6-3.2,1.6c-2.6,0-4.4-2-4.4-4.8c0-2.9,2-5,4.6-5c1.3,0,2.1,0.4,3,1.5
			V4.3z M63,9c0,1.6,1.1,2.8,2.4,2.8c1.4,0,2.6-1.3,2.6-2.9c0-1.6-1-2.8-2.5-2.8C64.1,6.1,63,7.3,63,9z"/>
		<path class="st0" d="M74,4.7l-1.7-0.5L73.4,0l2.2,0.6L74,4.7z"/>
		<path class="st0" d="M81,7V6.8c0-0.6-0.5-1-1.2-1c-0.6,0-1,0.3-1,0.8c0,0.2,0.1,0.5,0.3,0.6c0.3,0.2,0.3,0.2,1.6,0.6
			c2.1,0.6,2.9,1.5,2.9,3c0,1.8-1.4,3-3.6,3c-2.2,0-3.5-1.1-3.6-3h2.4c0.1,0.8,0.5,1.2,1.2,1.2c0.6,0,1-0.4,1-0.9
			c0-0.6-0.4-0.8-1.7-1.2c-2-0.6-2.9-1.5-2.9-3c0-1.8,1.4-2.9,3.6-2.9c2.1,0,3.4,1.1,3.5,3H81z"/>
		<path class="st0" d="M88.3,13.3c-0.3-0.3-0.5-0.8-0.5-1.4c0-0.4,0.1-0.9,0.2-1.4l0.3-1.6c0.1-0.4,0.1-0.7,0.1-1s-0.1-0.4-0.2-0.5
			c-0.2-0.1-0.4-0.1-0.8-0.1c0-0.5,0.1-1,0.2-1.4c1.5,0,2.8-0.3,4-0.8c0.2,0.1,0.4,0.3,0.5,0.5s0.2,0.4,0.2,0.7c0,0.2,0,0.3-0.1,0.5
			l-0.7,3.4c-0.1,0.6-0.2,1-0.2,1.2c0,0.1,0,0.2,0.1,0.2c0,0,0.1,0.1,0.2,0.1c0.2,0,0.4-0.1,0.6-0.3c0.1,0.1,0.2,0.3,0.4,0.5
			c0.1,0.2,0.2,0.5,0.2,0.7c-0.4,0.4-0.8,0.7-1.4,0.8c-0.5,0.2-1.1,0.3-1.6,0.3C89.2,13.7,88.6,13.6,88.3,13.3z M89.2,3.8
			c-0.3-0.3-0.4-0.6-0.4-1.1c0-0.6,0.2-1,0.6-1.4c0.4-0.3,1-0.5,1.7-0.5c0.5,0,0.9,0.1,1.2,0.4s0.4,0.6,0.4,1.1c0,0.1,0,0.2,0,0.3
			c-0.2,1-0.9,1.5-2.3,1.5C89.9,4.2,89.5,4.1,89.2,3.8z"/>
		<path class="st0" d="M104.9,11.9c0.1,0.2,0.2,0.5,0.2,0.7c-0.4,0.4-0.8,0.7-1.4,0.8c-0.5,0.2-1,0.3-1.6,0.3
			c-0.8,0-1.3-0.2-1.6-0.5s-0.5-0.8-0.5-1.4c0-0.4,0.1-0.9,0.2-1.4l0.3-1.2c0.1-0.3,0.1-0.5,0.1-0.8c0-0.5-0.2-0.8-0.5-0.8
			c-0.3,0-0.6,0.2-0.9,0.5c-0.3,0.4-0.6,0.9-0.9,1.7c-0.3,0.7-0.6,1.7-0.8,2.7l-0.2,0.9h-3.5l0.9-4.8c0.1-0.5,0.1-0.8,0.1-0.9
			c0-0.3-0.1-0.5-0.2-0.5c-0.2-0.1-0.4-0.1-0.9-0.1c0-0.5,0.1-1,0.2-1.4c1.6,0,3-0.3,4.2-0.8c0.4,0.2,0.6,0.5,0.6,1
			c0,0.1,0,0.2,0,0.2c-0.1,0.4-0.1,0.8-0.2,1.1S98.3,8,98.1,8.5v0.1l0.3-0.7c0.4-0.9,1-1.5,1.7-2.1c0.7-0.5,1.5-0.8,2.3-0.8
			c0.6,0,1.1,0.2,1.5,0.5s0.5,0.9,0.5,1.7c0,0.5-0.1,0.9-0.2,1.5l-0.3,1.5c-0.1,0.5-0.2,0.9-0.2,1.2c0,0.1,0,0.2,0.1,0.2
			c0,0,0.1,0.1,0.2,0.1c0.1,0,0.3-0.1,0.6-0.3C104.7,11.5,104.8,11.7,104.9,11.9z"/>
		<path class="st0" d="M115.4,8.6c-0.5,0.4-1.2,0.8-2.1,1.1c0.2,0.2,0.3,0.4,0.4,0.5c0.1,0.2,0.2,0.4,0.4,0.6
			c0.2,0.3,0.3,0.5,0.4,0.6s0.2,0.1,0.4,0.1c0.1,0,0.3,0,0.4-0.1c0.1,0.1,0.3,0.3,0.4,0.5c0.1,0.2,0.2,0.5,0.2,0.7
			c-0.8,0.7-1.7,1.1-2.7,1.1c-0.6,0-1.1-0.1-1.4-0.4s-0.6-0.6-0.8-1.1c-0.2-0.5-0.3-0.8-0.4-1c-0.1-0.2-0.2-0.4-0.4-0.7
			c0,0.2,0,0.4-0.1,0.6l-0.5,2.4h-3.5l1.6-9.3c0.1-0.4,0.1-0.7,0.1-0.9c0-0.3-0.1-0.5-0.2-0.5c-0.2-0.1-0.4-0.1-0.9-0.1
			c0-0.5,0.1-1,0.2-1.4c1.6,0,3-0.3,4.2-0.8c0.2,0.2,0.4,0.3,0.4,0.5c0.1,0.1,0.1,0.3,0.1,0.5c0,0.2,0,0.4-0.1,0.6
			c-0.3,1.5-0.5,2.6-0.6,3.2C110.7,6,110.4,6.8,110,8h0c0.4-0.9,1-1.6,1.8-2.1s1.6-0.8,2.4-0.8c0.6,0,1.1,0.1,1.4,0.4
			s0.5,0.7,0.5,1.2c0,0.1,0,0.2,0,0.4C116.1,7.7,115.8,8.2,115.4,8.6z M111.5,7.5c-0.3,0.2-0.6,0.5-0.8,0.9
			c-0.3,0.4-0.5,0.8-0.6,1.3c1-0.2,1.7-0.4,2.2-0.6s0.7-0.6,0.8-1c0,0,0-0.1,0-0.2c0-0.2-0.1-0.4-0.2-0.5c-0.1-0.1-0.3-0.2-0.5-0.2
			C112,7.2,111.8,7.3,111.5,7.5z"/>
	</g>
</g>
</svg>
