<?xml version="1.0" encoding="utf-8"?>
<!-- Generator: Adobe Illustrator 22.0.1, SVG Export Plug-In . SVG Version: 6.00 Build 0)  -->
<svg version="1.1" id="Layer_1" xmlns="http://www.w3.org/2000/svg" xmlns:xlink="http://www.w3.org/1999/xlink" x="0px" y="0px"
	 viewBox="0 0 506.5 122.6" style="enable-background:new 0 0 506.5 122.6;" xml:space="preserve">
<style type="text/css">
	.st0{fill:#2A2E2F;}
	.st1{fill:#FFB100;}
</style>
<g>
	<g>
		<path class="st0" d="M178.7,120.3c-1.5-0.9-2.8-2.1-3.7-3.9c-1-1.7-1.4-3.8-1.4-6.2c0-2,0.4-3.8,1.2-5.6c0.8-1.8,1.9-3.2,3.4-4.3
			c1.5-1.1,3.3-1.6,5.4-1.6c3,0,5.4,0.7,7.2,2.2c-0.2,1.4-0.3,3.3-0.3,5.5c-0.5,0.3-1.2,0.4-2.2,0.4c-0.2-1.8-0.7-3.2-1.6-4.2
			c-0.9-1-2-1.5-3.5-1.5c-1.6,0-2.9,0.7-3.8,2.2s-1.4,3.6-1.4,6.3c0,1.6,0.3,3.2,0.8,4.6c0.5,1.4,1.3,2.6,2.3,3.4
			c1,0.9,2.3,1.3,3.7,1.3c1,0,2-0.2,2.9-0.7c0.9-0.5,1.7-1.2,2.4-2.1c0.3,0.1,0.5,0.3,0.7,0.6c0.2,0.2,0.4,0.5,0.5,0.8
			c-1.8,2.8-4.4,4.2-7.9,4.2C181.8,121.6,180.2,121.1,178.7,120.3z"/>
		<path class="st0" d="M214.1,100.3c-0.2,1.5-0.3,3.4-0.3,5.7c-0.9,0.3-1.8,0.4-2.7,0.4c-0.1-1.4-0.3-2.4-0.7-2.9
			c-0.4-0.5-0.9-0.8-1.7-0.8c-0.6,0-1.2,0.3-1.8,0.9c-0.6,0.6-1.2,1.5-1.6,2.5c-0.4,1.1-0.6,2.2-0.6,3.4v4.6c0,1.4,0.1,2.4,0.4,3.1
			c0.3,0.7,0.7,1.2,1.3,1.5c0.6,0.3,1.4,0.4,2.5,0.5c0.2,0.4,0.2,1.1,0.2,2.1c-1.5-0.1-3.5-0.1-6-0.1c-3,0-5.1,0.1-6.3,0.1
			c0-0.9,0.1-1.6,0.2-2.1c1.3-0.1,2.1-0.4,2.6-0.9c0.5-0.6,0.7-1.6,0.7-3.2v-9.5c0-0.8-0.1-1.5-0.3-1.9c-0.2-0.5-0.5-0.8-1-1.1
			c-0.5-0.2-1.3-0.4-2.3-0.4c0-0.7,0.1-1.3,0.4-1.8c1-0.1,2.1-0.3,3.4-0.6c1.3-0.3,2.3-0.7,3-1.1c0.7,0.2,1.1,0.9,1.1,2.1
			c0,1.1-0.1,2.1-0.3,3c-0.2,0.9-0.3,1.5-0.3,1.7c0.1-0.2,0.2-0.6,0.4-1.1c0.2-0.6,0.4-1,0.6-1.3c1.6-2.6,3.6-3.9,5.8-3.9
			C212,99.2,213.1,99.6,214.1,100.3z"/>
		<path class="st0" d="M237.2,116.8c0.2,0.3,0.4,0.6,0.4,0.8c-1.1,1.4-2.3,2.4-3.7,3c-1.4,0.6-3,0.9-4.8,0.9c-2.2,0-4.1-0.5-5.6-1.5
			c-1.5-1-2.7-2.4-3.4-4.1c-0.8-1.7-1.1-3.7-1.1-5.8c0-2.1,0.4-4,1.2-5.7c0.8-1.7,2-3.1,3.5-4.1s3.2-1.6,5.2-1.6
			c2.9,0,5.1,0.9,6.5,2.7c1.4,1.8,2.2,4.2,2.5,7.2c-0.1,0.6-0.4,1.2-0.7,1.6c-5.6,0-10.1,0.1-13.4,0.2c0.2,2.5,0.8,4.5,1.8,6
			c1.1,1.5,2.8,2.3,5.1,2.3c1.1,0,2.1-0.2,3.2-0.7c1-0.5,1.9-1.2,2.7-2.1C236.7,116.2,236.9,116.5,237.2,116.8z M225.1,102.7
			c-0.9,1.1-1.4,2.9-1.5,5.5h9.2c0-2.1-0.4-3.9-1.2-5.2c-0.8-1.3-1.9-1.9-3.2-1.9C227.1,101,226,101.6,225.1,102.7z"/>
		<path class="st0" d="M260.8,116.3c0.1,0.5,0.4,0.9,0.8,1.1c0.4,0.2,1.1,0.4,1.9,0.4c0,0.9-0.1,1.7-0.3,2.2
			c-0.8,0.1-1.7,0.2-2.7,0.5c-1,0.3-1.8,0.6-2.6,1c-0.4-0.2-0.7-0.5-0.9-0.9c-0.2-0.4-0.3-1.1-0.3-1.9c0-0.5,0-1,0-1.2
			c-0.4,0.9-0.9,1.7-1.7,2.3c-1.2,1.1-2.9,1.6-5.1,1.6c-2,0-3.5-0.4-4.6-1.3c-1.1-0.9-1.6-2.1-1.6-3.7c0-1.9,0.7-3.4,2.1-4.5
			c1.4-1.1,2.9-1.9,4.6-2.4c1.7-0.5,3.6-0.9,5.6-1.2c0-1.9-0.1-3.3-0.2-4c-0.1-0.8-0.4-1.4-0.8-1.9c-0.8-1-1.8-1.4-3-1.4
			c-1.4,0-2.5,0.6-3.1,1.8c-0.7,1.2-1,2.4-1.1,3.8c-0.4,0-0.9,0-1.4-0.1c-0.5-0.1-0.9-0.1-1.1-0.2c0-0.3,0-0.9,0-1.6
			c0-1.4-0.1-2.6-0.3-3.6c1.3-0.7,2.7-1.2,4.1-1.6c1.5-0.4,2.8-0.6,4-0.6c2.2,0,3.9,0.6,5.1,1.8c0.8,0.8,1.3,1.8,1.6,3
			c0.3,1.3,0.4,3,0.4,5.2v5.3C260.6,115.1,260.6,115.9,260.8,116.3z M256.3,110.2c-1.5,0.2-2.8,0.4-3.8,0.7c-1,0.3-1.9,0.8-2.7,1.5
			c-0.8,0.7-1.1,1.7-1.1,3c0,1.1,0.3,2,0.8,2.5c0.5,0.6,1.2,0.9,2.1,0.9c0.8,0,1.5-0.2,2.2-0.7c0.7-0.5,1.3-1.2,1.8-2.3
			c0.5-1,0.7-2.3,0.7-3.8V110.2z"/>
		<path class="st0" d="M272.4,120.1c-0.9-1-1.3-2.5-1.3-4.7v-13c-1-0.3-2.1-0.5-3.4-0.6c0-0.7,0.1-1.4,0.4-2.1h3v-6.3
			c1.2-0.3,2.4-1,3.5-1.9c0.3,0.2,0.5,0.4,0.6,0.6c0.1,0.3,0.1,0.9,0.1,1.8v5.8h6.2c0,0.7-0.1,1.4-0.4,2.1c-2.4,0.1-4.3,0.3-5.8,0.6
			v12c0,3.1,0.9,4.6,2.8,4.6c0.6,0,1.2-0.1,1.7-0.3c0.5-0.2,1-0.5,1.5-0.9c0.4,0.5,0.7,1,0.7,1.6c-0.5,0.6-1.3,1.1-2.4,1.5
			c-1,0.4-2.1,0.6-3,0.6C274.7,121.6,273.3,121.1,272.4,120.1z"/>
		<path class="st0" d="M287.4,119.2c1.3,0,2.1-0.3,2.6-0.9c0.5-0.6,0.7-1.7,0.7-3.3v-9.5c0-0.8-0.1-1.5-0.2-2
			c-0.2-0.5-0.5-0.8-1-1.1c-0.5-0.2-1.3-0.4-2.3-0.4c0-0.7,0.1-1.3,0.4-1.8c0.8,0,1.9-0.2,3.4-0.5c1.5-0.4,2.5-0.7,3-1.1
			c0.7,0.2,1.1,0.9,1.1,1.9V115c0,1.6,0.2,2.7,0.6,3.3c0.4,0.6,1.2,0.9,2.2,0.9c0.2,0.5,0.2,1.2,0.2,2.1c-1.7-0.1-3.5-0.1-5.4-0.1
			c-2.1,0-3.9,0.1-5.5,0.1C287.2,120.4,287.2,119.7,287.4,119.2z M290.5,92.5c-0.5-0.5-0.8-1.2-0.8-2c0-0.8,0.3-1.5,0.8-2.1
			c0.6-0.6,1.2-0.8,2-0.8c0.9,0,1.6,0.3,2.1,0.8c0.5,0.5,0.8,1.2,0.8,2.1c0,0.7-0.3,1.4-0.8,1.9c-0.6,0.6-1.2,0.8-2,0.8
			S291,93.1,290.5,92.5z"/>
		<path class="st0" d="M326.3,99c0,0.8-0.1,1.5-0.4,2.1c-0.8,0.2-1.4,0.6-1.9,1.3c-0.5,0.7-1.1,2-2,4l-6.5,14.8
			c-0.6,0.3-1.3,0.4-2.2,0.4c-0.5-1.4-1.7-4.1-3.5-8.2c-1.8-4.1-3.2-7.1-4.1-9.2c-0.6-1.2-1.1-2-1.4-2.4c-0.4-0.3-0.9-0.6-1.5-0.6
			c-0.1-0.4-0.2-0.7-0.2-1c0-0.3-0.1-0.7-0.1-1.1c1.3,0.1,3,0.1,5,0.1c2.4,0,4.4,0,5.9-0.1c0,0.6-0.1,1.3-0.3,2
			c-1.1,0.1-1.9,0.2-2.3,0.4c-0.5,0.2-0.7,0.5-0.7,1c0,0.5,0.2,1.1,0.6,2c0.6,1.3,1.4,3.2,2.4,5.6c1,2.4,1.9,4.5,2.6,6.4l3.8-9.6
			c0.6-1.5,0.9-2.7,0.9-3.5c0-0.7-0.2-1.2-0.6-1.6c-0.4-0.3-1-0.6-1.8-0.6c-0.3-0.6-0.5-1.3-0.5-2c1.2,0.1,2.7,0.1,4.5,0.1
			C323.7,99.2,325.2,99.1,326.3,99z"/>
		<path class="st0" d="M348.7,116.8c0.2,0.3,0.4,0.6,0.4,0.8c-1.1,1.4-2.3,2.4-3.7,3c-1.4,0.6-3,0.9-4.8,0.9c-2.2,0-4.1-0.5-5.6-1.5
			c-1.5-1-2.7-2.4-3.4-4.1c-0.8-1.7-1.1-3.7-1.1-5.8c0-2.1,0.4-4,1.2-5.7c0.8-1.7,2-3.1,3.5-4.1c1.5-1,3.2-1.6,5.2-1.6
			c2.9,0,5.1,0.9,6.5,2.7c1.4,1.8,2.2,4.2,2.5,7.2c-0.1,0.6-0.4,1.2-0.7,1.6c-5.6,0-10.1,0.1-13.4,0.2c0.2,2.5,0.8,4.5,1.8,6
			c1.1,1.5,2.8,2.3,5.1,2.3c1.1,0,2.1-0.2,3.2-0.7c1-0.5,1.9-1.2,2.7-2.1C348.2,116.2,348.4,116.5,348.7,116.8z M336.6,102.7
			c-0.9,1.1-1.4,2.9-1.5,5.5h9.2c0-2.1-0.4-3.9-1.2-5.2c-0.8-1.3-1.9-1.9-3.2-1.9C338.6,101,337.5,101.6,336.6,102.7z"/>
		<path class="st0" d="M379.3,106c-0.1-1.4-0.6-2.6-1.6-3.7c-1-1.1-2.2-1.6-3.7-1.6c-1,0-1.8,0.2-2.4,0.7c-0.6,0.5-0.9,1.1-0.9,1.9
			c0,0.6,0.1,1.1,0.4,1.5c0.3,0.4,0.8,0.8,1.6,1.3c0.8,0.4,2,1,3.7,1.7c1.8,0.7,3.1,1.3,4.1,2c1,0.6,1.7,1.3,2.1,2.1
			s0.6,1.7,0.6,2.9c0,2-0.8,3.6-2.5,4.9c-1.7,1.2-3.8,1.9-6.3,1.9c-1.8,0-3.3-0.1-4.4-0.4c-1.1-0.3-2.3-0.7-3.5-1.3
			c0.1-0.8,0.1-1.9,0.1-3.2c0-0.9,0-1.8-0.1-2.7c0.5-0.3,1.3-0.5,2.5-0.5c0.2,2,0.8,3.5,1.8,4.5c1,1,2.3,1.5,4,1.5
			c1.3,0,2.3-0.3,3-0.9c0.7-0.6,1.1-1.3,1.1-2.2c0-0.6-0.1-1.1-0.4-1.5c-0.3-0.4-0.8-0.8-1.5-1.2c-0.7-0.4-1.8-0.9-3.3-1.5
			c-1.9-0.7-3.3-1.4-4.3-2c-1-0.6-1.7-1.3-2.2-2.1c-0.5-0.8-0.7-1.9-0.7-3.1c0-1.3,0.4-2.4,1.2-3.3c0.8-0.9,1.9-1.6,3.1-2
			c1.2-0.5,2.4-0.7,3.6-0.7c1.4,0,2.7,0.1,3.7,0.4c1.1,0.3,2.1,0.7,3.2,1.3c-0.1,1-0.1,1.7-0.1,2.3c0,1,0.1,1.9,0.2,2.7
			C381.1,105.8,380.3,106,379.3,106z"/>
		<path class="st0" d="M392.8,120.1c-0.9-1-1.3-2.5-1.3-4.7v-13c-1-0.3-2.1-0.5-3.5-0.6c0-0.7,0.1-1.4,0.4-2.1h3v-6.3
			c1.2-0.3,2.4-1,3.5-1.9c0.3,0.2,0.5,0.4,0.6,0.6c0.1,0.3,0.1,0.9,0.1,1.8v5.8h6.2c0,0.7-0.1,1.4-0.4,2.1c-2.4,0.1-4.3,0.3-5.8,0.6
			v12c0,3.1,0.9,4.6,2.8,4.6c0.6,0,1.2-0.1,1.7-0.3c0.5-0.2,1-0.5,1.5-0.9c0.4,0.5,0.7,1,0.7,1.6c-0.5,0.6-1.3,1.1-2.4,1.5
			c-1,0.4-2.1,0.6-3,0.6C395.1,121.6,393.7,121.1,392.8,120.1z"/>
		<path class="st0" d="M428.5,117.1c0.4,0.5,1.2,0.7,2.4,0.7c0,0.9-0.1,1.7-0.3,2.2c-0.8,0.1-1.8,0.2-2.8,0.5
			c-1.1,0.3-1.9,0.6-2.6,1c-0.4-0.2-0.7-0.5-0.9-0.8c-0.2-0.3-0.3-1-0.3-2c0-0.7,0-1.4,0.1-2c-0.3,0.7-0.8,1.4-1.5,2.1
			c-0.9,0.9-1.8,1.5-2.7,1.9c-0.9,0.4-2,0.6-3.3,0.6c-2.3,0-4-0.7-5.1-2c-1.1-1.3-1.7-3.5-1.7-6.6v-7.2c0-0.9-0.1-1.5-0.2-2
			c-0.1-0.4-0.4-0.8-0.9-1c-0.4-0.2-1.1-0.4-2.1-0.4c0-0.7,0.1-1.3,0.3-1.8c1-0.1,2.1-0.3,3.2-0.6c1.2-0.3,2.1-0.7,2.9-1.1
			c0.7,0.2,1.1,0.9,1.1,2.1v10.9c0,2.2,0.3,3.9,0.9,5c0.6,1.1,1.6,1.7,3.1,1.7c1.7,0,3-0.7,4.1-2.1c1-1.4,1.6-3.4,1.6-6.1v-4.9
			c0-0.8-0.1-1.5-0.3-1.9c-0.2-0.5-0.5-0.8-1-1.1c-0.5-0.2-1.3-0.4-2.3-0.4c0-0.4,0-0.8,0.1-1c0-0.2,0.1-0.5,0.3-0.7
			c1.2-0.1,2.4-0.2,3.6-0.5c1.2-0.3,2.2-0.6,2.9-0.9c0.7,0.2,1.1,0.9,1.1,2.1v13.8C427.9,115.8,428.1,116.7,428.5,117.1z"/>
		<path class="st0" d="M457.4,117.1c0.4,0.5,1.2,0.7,2.4,0.7c0,0.9-0.1,1.7-0.3,2.2c-0.8,0.1-1.8,0.2-2.8,0.5
			c-1.1,0.3-1.9,0.6-2.6,1c-0.4-0.2-0.7-0.5-0.9-0.8s-0.3-1-0.3-2c0-0.5,0.1-1.1,0.2-1.7c0.1-0.6,0.2-0.9,0.2-1.1
			c-0.3,0.6-0.7,1.3-1.1,2c-0.5,0.9-1.4,1.7-2.6,2.4c-1.2,0.7-2.5,1.1-4,1.1c-2.9,0-5.1-0.9-6.6-2.6s-2.3-4.4-2.3-8
			c0-2.2,0.5-4.3,1.5-6.1c1-1.9,2.4-3.3,4.2-4.4s3.9-1.6,6.2-1.6c1.3,0,2.6,0.2,4,0.7v-5.8c0-0.8-0.1-1.5-0.2-2
			c-0.2-0.5-0.5-0.8-1-1.1c-0.5-0.2-1.3-0.4-2.3-0.4c0-0.7,0.1-1.3,0.4-1.8c0.8,0,1.9-0.2,3.4-0.5c1.5-0.4,2.5-0.7,3-1.1
			c0.7,0.2,1.1,0.9,1.1,1.9v25.9C456.9,115.8,457,116.7,457.4,117.1z M450.8,116.3c1.1-1.5,1.7-3.8,1.7-6.9v-6.8
			c-0.6-0.5-1.2-1-1.9-1.2c-0.7-0.3-1.4-0.4-2.3-0.4c-1.1,0-2.1,0.3-3.2,0.8c-1.1,0.5-2,1.5-2.7,2.9c-0.7,1.4-1.1,3.3-1.1,5.6
			c0,1.9,0.3,3.5,0.9,4.7c0.6,1.2,1.3,2.1,2.1,2.7c0.8,0.6,1.6,0.8,2.4,0.8C448.3,118.5,449.7,117.8,450.8,116.3z"/>
		<path class="st0" d="M465.7,119.2c1.3,0,2.1-0.3,2.6-0.9c0.5-0.6,0.7-1.7,0.7-3.3v-9.5c0-0.8-0.1-1.5-0.2-2
			c-0.2-0.5-0.5-0.8-1-1.1c-0.5-0.2-1.3-0.4-2.3-0.4c0-0.7,0.1-1.3,0.4-1.8c0.8,0,1.9-0.2,3.4-0.5c1.5-0.4,2.5-0.7,3-1.1
			c0.7,0.2,1.1,0.9,1.1,1.9V115c0,1.6,0.2,2.7,0.6,3.3c0.4,0.6,1.2,0.9,2.2,0.9c0.2,0.5,0.2,1.2,0.2,2.1c-1.7-0.1-3.5-0.1-5.4-0.1
			c-2.1,0-3.9,0.1-5.5,0.1C465.4,120.4,465.5,119.7,465.7,119.2z M468.7,92.5c-0.5-0.5-0.8-1.2-0.8-2c0-0.8,0.3-1.5,0.8-2.1
			c0.6-0.6,1.2-0.8,2-0.8c0.9,0,1.6,0.3,2.1,0.8c0.5,0.5,0.8,1.2,0.8,2.1c0,0.7-0.3,1.4-0.8,1.9c-0.6,0.6-1.2,0.8-2,0.8
			C470,93.3,469.3,93.1,468.7,92.5z"/>
		<path class="st0" d="M487,120.1c-1.6-0.9-2.9-2.3-3.8-4c-0.9-1.7-1.3-3.7-1.3-6c0-2.1,0.5-4.1,1.4-5.8c0.9-1.7,2.2-3.1,3.9-4.1
			c1.6-1,3.5-1.5,5.6-1.5c3.4,0,6,1,7.9,3.1c1.9,2.1,2.9,4.8,2.9,8.3c0,2.2-0.5,4.1-1.4,5.8c-0.9,1.7-2.2,3.1-3.8,4.1
			c-1.6,1-3.5,1.5-5.6,1.5C490.6,121.6,488.7,121.1,487,120.1z M497.4,116.9c1-1.5,1.4-3.6,1.4-6.2c0-1.9-0.3-3.6-0.9-5.1
			c-0.6-1.5-1.4-2.6-2.4-3.4c-1-0.8-2.1-1.2-3.3-1.2c-1.8,0-3.2,0.7-4.1,2.2c-0.9,1.5-1.4,3.4-1.4,5.9c0,3.2,0.6,5.7,1.7,7.5
			s2.7,2.7,4.7,2.7C495,119.3,496.4,118.5,497.4,116.9z"/>
	</g>
</g>
<g>
	<g>
		<path class="st0" d="M40.6,20.5L25.9,60.7H14.5L0,20.5h11.5l8.9,24l8.9-24H40.6z"/>
		<path class="st0" d="M75.9,20.5h11v40.2h-11v-5.6c-3.7,4.8-8.1,7-14,7c-11.3,0-19.4-8.8-19.4-21c0-12.7,8.5-22,20.2-22
			c5.5,0,9.2,1.9,13.1,6.5V20.5z M54.4,40.9c0,7,4.6,12.3,10.6,12.3c6.2,0,11.1-5.7,11.1-12.7c0-7.1-4.5-12.2-11-12.2
			C58.8,28.4,54.4,33.5,54.4,40.9z"/>
		<path class="st0" d="M108.9,20.5v5c3-4.6,5.9-6.3,10.9-6.3c3.8,0,7.5,1.4,9.9,3.7c2.6,2.6,3.6,5.8,3.6,12.4v25.5h-11V35.8
			c0-2.3-0.3-3.6-1-4.7c-1-1.7-3.1-2.7-5.3-2.7c-4.3,0-7.1,3.2-7.1,7.9v24.4h-11V20.5H108.9z"/>
		<path class="st0" d="M152.8,43.3c1,5.6,5,9,10.5,9c4.1,0,7.6-2,9.3-5.2l10.2,2.8c-4,7.8-11,12.3-19.5,12.3
			c-12.8,0-21.9-9-21.9-21.5c0-12.6,8.8-21.5,21.2-21.5c12.9,0,21.8,9,21.8,22l-0.1,2.2H152.8z M173,36.9c-1-5.3-4.8-8.5-10.2-8.5
			c-5.3,0-8.9,3-9.9,8.5H173z"/>
		<path class="st0" d="M209.5,32.1v-0.7c0-2.4-2.2-4.2-5.1-4.2c-2.7,0-4.4,1.5-4.4,3.7c0,1,0.4,2.1,1.1,2.6c1.2,1,1.3,1,6.9,2.7
			c9,2.8,12.6,6.3,12.6,12.9c0,7.8-6.3,13-15.6,13c-9.6,0-15.4-4.9-15.8-13.2h10.6c0.5,3.5,2.1,5,5.3,5c2.6,0,4.4-1.6,4.4-3.8
			c0-2.4-1.6-3.6-7.5-5.4c-8.7-2.6-12.6-6.5-12.6-12.9c0-7.6,6.2-12.8,15.6-12.8c9.2,0,14.8,4.9,15,13H209.5z"/>
		<path class="st0" d="M246.3,32.1v-0.7c0-2.4-2.2-4.2-5.1-4.2c-2.7,0-4.4,1.5-4.4,3.7c0,1,0.4,2.1,1.1,2.6c1.2,1,1.3,1,6.9,2.7
			c9,2.8,12.6,6.3,12.6,12.9c0,7.8-6.3,13-15.6,13c-9.6,0-15.4-4.9-15.8-13.2h10.6c0.5,3.5,2.1,5,5.3,5c2.6,0,4.4-1.6,4.4-3.8
			c0-2.4-1.6-3.6-7.5-5.4c-8.7-2.6-12.6-6.5-12.6-12.9c0-7.6,6.2-12.8,15.6-12.8c9.2,0,14.8,4.9,15,13H246.3z"/>
		<path class="st0" d="M296.2,20.5h11v40.2h-11v-5.6c-3.7,4.8-8.1,7-14,7c-11.3,0-19.4-8.8-19.4-21c0-12.7,8.5-22,20.2-22
			c5.5,0,9.2,1.9,13.1,6.5V20.5z M274.7,40.9c0,7,4.6,12.3,10.6,12.3c6.2,0,11.1-5.7,11.1-12.7c0-7.1-4.5-12.2-11-12.2
			C279.1,28.4,274.7,33.5,274.7,40.9z"/>
		<path class="st0" d="M322.2,22.2l-7.5-2l4.9-18.6l9.5,2.5L322.2,22.2z"/>
		<path class="st0" d="M352.7,32.1v-0.7c0-2.4-2.2-4.2-5.1-4.2c-2.7,0-4.4,1.5-4.4,3.7c0,1,0.4,2.1,1.1,2.6c1.2,1,1.3,1,6.9,2.7
			c9,2.8,12.6,6.3,12.6,12.9c0,7.8-6.3,13-15.6,13c-9.6,0-15.4-4.9-15.8-13.2h10.6c0.5,3.5,2.1,5,5.3,5c2.6,0,4.4-1.6,4.4-3.8
			c0-2.4-1.6-3.6-7.5-5.4c-8.7-2.6-12.6-6.5-12.6-12.9c0-7.6,6.2-12.8,15.6-12.8c9.2,0,14.8,4.9,15,13H352.7z"/>
		<path class="st1" d="M384.8,59.4c-1.4-1.4-2-3.4-2-6.1c0-1.6,0.3-3.7,0.8-6.3l1.5-7.2c0.4-1.6,0.6-3,0.6-4.1c0-1.1-0.3-1.9-1-2.3
			c-0.7-0.4-1.9-0.6-3.7-0.6c0-2.3,0.3-4.3,1-6c6.4-0.2,12.2-1.2,17.4-3.3c1,0.6,1.8,1.3,2.3,2.1c0.5,0.8,0.8,1.9,0.8,3.2
			c0,0.7-0.1,1.5-0.2,2.4L399.3,46c-0.5,2.6-0.7,4.2-0.7,5c0,0.5,0.1,0.9,0.2,1.1c0.2,0.2,0.4,0.3,0.7,0.3c0.7,0,1.6-0.4,2.6-1.1
			c0.5,0.5,1.1,1.3,1.6,2.4c0.5,1,0.9,2,1,2.9c-1.7,1.6-3.7,2.9-5.9,3.7s-4.6,1.2-7.1,1.2C388.5,61.4,386.2,60.7,384.8,59.4z
			 M388.8,18.3c-1.3-1.1-1.9-2.7-1.9-4.7c0-2.6,0.9-4.5,2.6-5.9c1.8-1.4,4.2-2.1,7.4-2.1c2.1,0,3.8,0.6,5.1,1.8s2,2.7,2,4.6
			c0,0.3-0.1,0.8-0.2,1.4c-0.7,4.4-4.1,6.5-10,6.5C391.7,20,390,19.5,388.8,18.3z"/>
		<path class="st1" d="M457,53.7c0.5,1,0.9,2,1,2.9c-1.7,1.6-3.7,2.9-5.9,3.7c-2.2,0.8-4.6,1.2-7,1.2c-3.3,0-5.6-0.7-7.1-2.1
			c-1.4-1.4-2.1-3.4-2.1-6.1c0-1.7,0.3-3.8,0.9-6.2l1.2-5.2c0.3-1.2,0.5-2.3,0.5-3.4c0-2.2-0.7-3.3-2.2-3.3c-1.2,0-2.5,0.8-3.9,2.4
			c-1.4,1.6-2.8,4-4.1,7.2c-1.3,3.2-2.4,7.2-3.3,11.9l-0.7,4h-15.4l3.9-20.9c0.4-2.1,0.6-3.4,0.6-4.1c0-1.2-0.3-2-1-2.4
			c-0.7-0.4-1.9-0.6-3.7-0.6c0-2.3,0.3-4.3,1-6c7-0.2,13.1-1.2,18.2-3.3c1.7,0.9,2.6,2.3,2.6,4.2c0,0.4,0,0.7-0.1,1
			c-0.3,1.7-0.6,3.3-1,4.7c-0.4,1.4-1.1,3.2-2,5.2v0.2l1.4-2.9c1.8-3.7,4.3-6.7,7.4-9c3.1-2.3,6.5-3.4,10.1-3.4c2.8,0,5,0.8,6.5,2.4
			c1.5,1.6,2.3,4,2.3,7.2c0,2-0.3,4.1-0.8,6.4l-1.5,6.6c-0.6,2.3-0.9,4-0.9,5c0,0.5,0.1,0.9,0.2,1.1c0.2,0.2,0.4,0.3,0.8,0.3
			c0.6,0,1.5-0.4,2.6-1.1C455.9,51.8,456.5,52.6,457,53.7z"/>
		<path class="st1" d="M502.6,39.1c-2,1.7-5.1,3.3-9.1,4.7c0.7,0.8,1.4,1.5,1.8,2.2c0.5,0.7,1,1.6,1.7,2.8c0.7,1.3,1.2,2.1,1.6,2.6
			c0.4,0.4,0.9,0.6,1.6,0.6c0.6,0,1.2-0.2,1.8-0.6c0.6,0.6,1.2,1.4,1.7,2.4c0.5,1,0.8,2,0.8,2.9c-3.3,3.2-7.3,4.9-12,4.9
			c-2.8,0-4.9-0.5-6.3-1.6c-1.4-1-2.5-2.7-3.4-4.9c-0.9-2.1-1.5-3.5-2-4.4c-0.5-0.8-1-1.8-1.7-2.9c-0.1,0.7-0.2,1.7-0.5,2.7
			l-2.1,10.3h-15.4l7.1-40.4c0.3-1.7,0.5-3,0.5-4c0-1.2-0.3-2-1-2.4c-0.7-0.4-1.9-0.6-3.7-0.6c0-2.2,0.3-4.2,1-6
			c7-0.2,13.1-1.2,18.2-3.3c0.9,0.7,1.5,1.4,1.9,2c0.3,0.6,0.5,1.3,0.5,2.2c0,0.9-0.1,1.8-0.3,2.8c-1.2,6.5-2.1,11.1-2.7,13.8
			c-0.6,2.7-1.8,6.5-3.4,11.4h0.1c1.9-3.8,4.5-6.9,7.8-9.3c3.3-2.4,6.8-3.6,10.6-3.6c2.6,0,4.6,0.6,6.2,1.9s2.4,3,2.4,5.4
			c0,0.3-0.1,0.9-0.2,1.8C505.9,35.2,504.6,37.4,502.6,39.1z M485.6,34.2c-1.3,0.9-2.5,2.2-3.7,3.9c-1.1,1.7-2,3.6-2.6,5.9
			c4.4-0.8,7.5-1.7,9.5-2.8c1.9-1.1,3.1-2.6,3.5-4.5c0.1-0.2,0.1-0.5,0.1-0.9c0-0.8-0.3-1.5-0.8-2.1c-0.5-0.5-1.3-0.8-2.4-0.8
			C488.1,32.9,486.9,33.3,485.6,34.2z"/>
	</g>
</g>
</svg>
