<?xml version="1.0" encoding="utf-8"?>
<!-- Generator: Adobe Illustrator 23.1.1, SVG Export Plug-In . SVG Version: 6.00 Build 0)  -->
<svg version="1.1" id="Layer_1" xmlns="http://www.w3.org/2000/svg" xmlns:xlink="http://www.w3.org/1999/xlink" x="0px" y="0px"
	 viewBox="0 0 912.2 125" style="enable-background:new 0 0 912.2 125;" xml:space="preserve">
<style type="text/css">
	.st0{fill:#2A2E2F;}
	.st1{fill:#FBB017;}
	.st2{fill:#2A2E2F;stroke:#000000;stroke-width:0.2625;}
	.st3{fill:none;stroke:#2A2E2F;stroke-width:0.9862;}
</style>
<g>
	<g>
		<path class="st0" d="M633.6,55.9c-1.3,0-2.4-1.1-2.4-2.4l0,0V42.2c0-1.3,1.1-2.4,2.4-2.4c1.3,0,2.4,1.1,2.4,2.4v11.3
			C636.1,54.8,635,55.9,633.6,55.9C633.7,55.9,633.7,55.9,633.6,55.9z"/>
		<path class="st0" d="M731.1,82.9h-0.4c-5.2,0-10.1-2.2-13.5-6c-0.8-1-0.6-2.5,0.4-3.4c1-0.8,2.5-0.6,3.4,0.4
			c2.5,2.7,6.1,4.2,9.8,4.2c3.1,0.3,6.2-0.7,8.5-2.9c1.2-1.5,1.7-3.4,1.3-5.3c-0.6-4.1-5.7-5.9-9.8-7.3l-0.5-0.2
			c-1.2-0.5-1.8-1.9-1.3-3.1c0.5-1.1,1.7-1.7,2.8-1.4l0.5,0.2c4.8,1.6,12,4.1,13,11.1c0.6,3.3-0.3,6.7-2.5,9.2
			C739.8,81.6,735.5,83.2,731.1,82.9z"/>
		<path class="st0" d="M863.7,82.9c-0.8,0-1.6-0.4-2-1.2l-9-15.2c-0.7-1.1-0.3-2.6,0.8-3.3c0.1,0,0.1-0.1,0.2-0.1c0,0,7-3.5,7-9.5
			c0-6-3.4-9-10.1-9h-10.9c-1.3,0-2.4-1.1-2.4-2.4c0-1.3,1.1-2.4,2.4-2.4h10.9c9.4,0,14.9,5.2,14.9,13.9c-0.4,5.1-3.2,9.6-7.6,12.2
			l7.9,13.2c0.7,1.1,0.3,2.6-0.8,3.3C864.6,82.7,864.1,82.8,863.7,82.9L863.7,82.9z"/>
		<path class="st0" d="M820,71.2h-21.2c-1.3,0-2.4-1.1-2.4-2.4c0-1.3,1.1-2.4,2.4-2.4H820c1.3,0,2.4,1.1,2.4,2.4
			C822.4,70.2,821.3,71.2,820,71.2z"/>
		<path class="st0" d="M567.8,62.6c-0.3,0-0.5,0-0.8-0.1l-1.2-0.4c-4.5-1.5-11.1-3.7-11.5-10.4c-0.3-3.1,0.7-6.2,2.9-8.5
			c2.8-2.7,6.6-4.1,10.5-3.8c4.7,0,9.1,2,12.2,5.5c0.8,1,0.6,2.5-0.4,3.4c-1,0.8-2.5,0.6-3.4-0.4l0,0c-2.2-2.3-5.3-3.7-8.5-3.6
			c-2.5-0.2-5.1,0.6-7,2.2c-1.2,1.3-1.8,3.1-1.6,4.9c0.2,3.2,3.7,4.7,8.3,6.2l1.3,0.4c1.3,0.4,2,1.7,1.6,3
			C569.8,62,568.8,62.7,567.8,62.6z"/>
		<path class="st0" d="M619.5,82.9c-0.8,0-1.5-0.4-2-1l-15.7-22.6c-0.8-1.1-0.5-2.6,0.6-3.4c1.1-0.8,2.6-0.5,3.4,0.6l15.8,22.6
			c0.8,1.1,0.5,2.6-0.6,3.3c-0.4,0.3-0.9,0.4-1.4,0.4L619.5,82.9L619.5,82.9z"/>
		<path class="st0" d="M593.8,82.9c-1.3,0-2.4-1.1-2.4-2.4V67c0-1.3,1.1-2.4,2.4-2.4s2.4,1.1,2.4,2.4v13.5
			C596.2,81.8,595.1,82.9,593.8,82.9C593.8,82.9,593.8,82.9,593.8,82.9z"/>
		<path class="st0" d="M650.8,82.9c-1.3-0.1-2.3-1.1-2.3-2.4V42.2c0-1.3,1.1-2.4,2.4-2.4c1.3,0,2.4,1.1,2.4,2.4v38.3
			c0.1,1.3-1,2.4-2.3,2.5C651,82.9,650.9,82.9,650.8,82.9z"/>
		<path class="st0" d="M707.5,82.9h-22.3c-1.3,0-2.4-1.1-2.4-2.4c0-1.3,1.1-2.4,2.4-2.4h22.3c1.3,0,2.4,1.1,2.4,2.4
			C709.9,81.8,708.8,82.9,707.5,82.9z"/>
		<path class="st0" d="M779.1,82.9c-1.3,0-2.4-1.1-2.4-2.4V42.2c0-1.3,1.1-2.4,2.4-2.4c1.3,0,2.4,1.1,2.4,2.4v38.3
			c0.1,1.3-1,2.4-2.3,2.5C779.2,82.9,779.2,82.9,779.1,82.9z"/>
		<path class="st0" d="M779.1,63.9h-12c-1.3,0-2.4-1.1-2.4-2.4s1.1-2.4,2.4-2.4h12c1.3,0,2.4,1.1,2.4,2.4S780.4,63.9,779.1,63.9z"/>
		<path class="st0" d="M793.7,82.9c-1.3,0-2.4-1-2.4-2.3c0-0.3,0.1-0.7,0.2-1l16-38.3c0.5-1.2,1.9-1.8,3.2-1.3
			c1.2,0.5,1.8,1.9,1.3,3.2l0,0l-16,38.3C795.5,82.3,794.6,82.9,793.7,82.9z"/>
		<path class="st0" d="M903.4,82.9h-23.5c-1.3,0-2.4-1.1-2.4-2.4V61.3c0-1.3,1.1-2.4,2.4-2.4s2.4,1.1,2.4,2.4v16.8h21.1
			c1.3,0,2.4,1.1,2.4,2.4C905.8,81.8,904.8,82.9,903.4,82.9L903.4,82.9L903.4,82.9L903.4,82.9z"/>
		<path class="st0" d="M567.8,82.9h-0.4c-5.2,0-10.1-2.2-13.5-6c-0.8-1.1-0.6-2.6,0.4-3.4c1.1-0.8,2.6-0.6,3.4,0.4l0,0
			c2.5,2.7,6.1,4.2,9.8,4.2c3.1,0.3,6.2-0.7,8.5-2.9c1.2-1.5,1.7-3.4,1.3-5.3c-0.6-4.1-5.7-5.9-9.8-7.3l-0.5-0.2
			c-1.2-0.5-1.8-1.9-1.3-3.1c0.5-1.1,1.7-1.7,2.8-1.4l0.5,0.2c4.8,1.6,12,4.1,13,11.1c0.6,3.3-0.3,6.7-2.5,9.2
			C576.4,81.6,572.2,83.2,567.8,82.9z"/>
		<path class="st0" d="M731.1,62.6c-0.3,0-0.5,0-0.8-0.1l-1.2-0.4c-4.5-1.5-11.1-3.7-11.5-10.4c-0.3-3.1,0.7-6.2,2.8-8.5
			c2.8-2.7,6.6-4.1,10.5-3.8c4.6,0,9.1,2,12.1,5.5c0.8,1,0.6,2.5-0.4,3.4c-1,0.8-2.5,0.6-3.4-0.4c-2.2-2.3-5.2-3.6-8.4-3.6
			c-2.5-0.2-5.1,0.6-7,2.2c-1.2,1.3-1.8,3.1-1.5,4.9c0.2,3.2,3.7,4.7,8.3,6.2l1.3,0.4c1.3,0.4,2,1.7,1.6,3
			C733.2,61.9,732.2,62.6,731.1,62.6L731.1,62.6L731.1,62.6z"/>
		<path class="st0" d="M673.3,82.9h-22.5c-1.3,0-2.4-1.1-2.4-2.4c0-1.3,1.1-2.4,2.4-2.4h22.5c1.3,0,2.4,1.1,2.4,2.4
			C675.7,81.8,674.7,82.9,673.3,82.9L673.3,82.9z"/>
		<path class="st0" d="M633.6,82.9c-1.3,0-2.4-1.1-2.4-2.4l0,0v-27c0-1.3,1.1-2.4,2.4-2.4c1.3,0,2.4,1.1,2.4,2.4v27
			C636.1,81.8,635,82.9,633.6,82.9C633.7,82.9,633.7,82.9,633.6,82.9z"/>
		<path class="st0" d="M685.2,82.9c-1.3,0-2.4-1.1-2.4-2.4l0,0V42.2c0-1.3,1.1-2.4,2.4-2.4c1.3,0,2.4,1.1,2.4,2.4v38.3
			c0.1,1.3-1,2.4-2.3,2.5C685.3,82.9,685.2,82.9,685.2,82.9z"/>
		<path class="st0" d="M755.1,82.9c-1.3,0-2.4-1.1-2.4-2.4V42.2c0-1.3,1.1-2.4,2.4-2.4c1.3,0,2.4,1.1,2.4,2.4v38.3
			c0,1.3-1,2.4-2.3,2.5C755.2,82.9,755.1,82.9,755.1,82.9z"/>
		<path class="st0" d="M767.1,63.9h-12c-1.3,0-2.4-1.1-2.4-2.4s1.1-2.4,2.4-2.4h12c1.3,0,2.4,1.1,2.4,2.4S768.4,63.9,767.1,63.9
			L767.1,63.9z"/>
		<path class="st0" d="M825.7,82.9c-1,0-1.9-0.6-2.3-1.5l-16-38.3c-0.5-1.2,0.1-2.7,1.3-3.2c1.2-0.5,2.7,0.1,3.2,1.3l16,38.3
			c0.5,1.2-0.1,2.6-1.3,3.1C826.4,82.9,826.1,82.9,825.7,82.9L825.7,82.9L825.7,82.9z"/>
		<path class="st0" d="M839.5,82.9c-1.3,0-2.4-1.1-2.4-2.4V42.2c0-1.3,1.1-2.4,2.4-2.4c1.3,0,2.4,1.1,2.4,2.4v38.3
			c0,1.3-1,2.4-2.3,2.5C839.6,82.9,839.6,82.9,839.5,82.9z"/>
		<path class="st0" d="M854.6,67.7h-13.9c-1.3,0-2.4-1.1-2.4-2.4c0-1.3,1.1-2.4,2.4-2.4h13.9c1.3,0,2.4,1.1,2.4,2.4
			C857,66.6,856,67.7,854.6,67.7z"/>
		<path class="st0" d="M900.1,63.8h-20.1c-1.3,0-2.4-1.1-2.4-2.4V42.2c0-1.3,1.1-2.4,2.4-2.4h23.5c1.3,0,2.4,1.1,2.4,2.4
			c0,1.3-1.1,2.4-2.4,2.4l0,0h-21.1V59H900c1.3,0,2.4,1.1,2.4,2.4C902.4,62.7,901.4,63.7,900.1,63.8L900.1,63.8z"/>
		<path class="st0" d="M593.8,69.3c-1.3,0-2.4-1.1-2.4-2.4l0,0V42.2c0-1.3,1.1-2.4,2.4-2.4s2.4,1.1,2.4,2.4V61l20.3-20.6
			c0.9-0.9,2.4-1,3.4,0c0.9,0.9,1,2.4,0,3.4l-24.3,24.8C595.1,69.1,594.4,69.3,593.8,69.3z"/>
	</g>
</g>
<g>
	<g>
		<g>
			<path class="st0" d="M35.7,55.4l-10,27.9h-9.4l-10-27.9h9.5l5.4,14.4l5.2-14.4H35.7z"/>
			<path class="st0" d="M61,55.4h9.2v27.9H61v-3.1c-2.5,2.9-5.5,4.2-9.5,4.2c-8,0-13.7-6.1-13.7-14.6c0-8.9,6.1-15.4,14.5-15.4
				c3.6,0,6,1.1,8.7,4.1V55.4z M47.6,69.5c0,4.3,2.9,7.6,6.6,7.6c3.8,0,6.9-3.5,6.9-7.7c0-4.5-2.8-7.5-6.8-7.5
				C50.4,61.9,47.6,65.1,47.6,69.5z"/>
			<path class="st0" d="M87.3,55.4v3.1c1.8-3.1,3.7-4.2,7.1-4.2c2.8,0,5.4,1,7.2,2.7c1.9,1.9,2.5,4.2,2.5,9.2v17.1H95V66.2
				c0-2.7-1.4-4.3-3.8-4.3s-3.9,1.7-3.9,4.5v16.9h-9.2V55.4H87.3z"/>
			<path class="st0" d="M119.8,71.3c0.7,3.1,3.1,5,6.4,5c2.5,0,4.5-1.1,5.5-3.1l8.4,2.2c-1.4,2.8-2.4,4-4.5,5.7
				c-2.8,2.2-6,3.3-9.6,3.3c-9.1,0-15.7-6.3-15.7-15.2c0-8.9,6.1-14.9,15.2-14.9c9.2,0,15.4,6.3,15.4,15.8v1.1H119.8z M131.6,66.4
				c-0.6-2.9-2.8-4.5-6-4.5c-3.1,0-5.2,1.6-5.8,4.5H131.6z"/>
			<path class="st0" d="M158.9,63.6v-0.5c0-1.3-1.1-2.2-2.7-2.2c-1.3,0-2.2,0.8-2.2,1.9c0,1.1,0.8,1.8,3.2,2.5
				c7.8,2.2,10.7,4.8,10.7,9.7c0,5.7-4.5,9.5-11.3,9.5s-11.1-3.6-11.3-9.4h8.7c0.4,2,1,2.8,2.6,2.8c1.2,0,2.1-0.8,2.1-2
				c0-1.3-0.9-1.9-4.6-3.1c-6.1-1.9-8.7-4.8-8.7-9.2c0-5.5,4.5-9.2,11.3-9.2c6.6,0,10.7,3.5,10.8,9.3H158.9z"/>
			<path class="st0" d="M186.2,63.6v-0.5c0-1.3-1.1-2.2-2.7-2.2c-1.3,0-2.2,0.8-2.2,1.9c0,1.1,0.8,1.8,3.2,2.5
				c7.8,2.2,10.7,4.8,10.7,9.7c0,5.7-4.5,9.5-11.3,9.5s-11.1-3.6-11.3-9.4h8.7c0.4,2,1,2.8,2.6,2.8c1.2,0,2.1-0.8,2.1-2
				c0-1.3-0.9-1.9-4.6-3.1c-6.1-1.9-8.7-4.8-8.7-9.2c0-5.5,4.5-9.2,11.3-9.2c6.6,0,10.7,3.5,10.8,9.3H186.2z"/>
			<path class="st0" d="M222.8,55.4h9.2v27.9h-9.2v-3.1c-2.5,2.9-5.5,4.2-9.5,4.2c-8,0-13.7-6.1-13.7-14.6c0-8.9,6.1-15.4,14.5-15.4
				c3.6,0,6,1.1,8.7,4.1V55.4z M209.4,69.5c0,4.3,2.9,7.6,6.6,7.6c3.8,0,6.9-3.5,6.9-7.7c0-4.5-2.8-7.5-6.8-7.5
				C212.2,61.9,209.4,65.1,209.4,69.5z"/>
			<path class="st0" d="M245.1,56.9l-6-1.5l2.7-13.1l7.8,1.9L245.1,56.9z"/>
			<path class="st0" d="M267.4,63.6v-0.5c0-1.3-1.1-2.2-2.7-2.2c-1.3,0-2.2,0.8-2.2,1.9c0,1.1,0.8,1.8,3.2,2.5
				c7.8,2.2,10.7,4.8,10.7,9.7c0,5.7-4.5,9.5-11.3,9.5s-11.1-3.6-11.3-9.4h8.7c0.4,2,1,2.8,2.6,2.8c1.2,0,2.1-0.8,2.1-2
				c0-1.3-0.9-1.9-4.6-3.1c-6.1-1.9-8.7-4.8-8.7-9.2c0-5.5,4.5-9.2,11.3-9.2c6.6,0,10.7,3.5,10.8,9.3H267.4z"/>
			<path class="st1" d="M288.7,82.2c-1-1-1.5-2.6-1.5-4.6c0-1.2,0.2-2.8,0.6-4.8l1.1-5.4c0.3-1.2,0.4-2.3,0.4-3.1
				c0-0.8-0.3-1.4-0.8-1.7c-0.5-0.3-1.4-0.5-2.8-0.5c0-1.7,0.3-3.2,0.8-4.5c4.9-0.1,9.2-0.9,13.1-2.5c0.8,0.4,1.3,1,1.7,1.6
				c0.4,0.6,0.6,1.4,0.6,2.4c0,0.5-0.1,1.1-0.2,1.8l-2.2,11.3c-0.4,1.9-0.5,3.2-0.5,3.8c0,0.4,0.1,0.7,0.2,0.8
				c0.1,0.1,0.3,0.2,0.5,0.2c0.6,0,1.2-0.3,1.9-0.8c0.4,0.4,0.8,1,1.2,1.8c0.4,0.8,0.6,1.5,0.7,2.2c-1.3,1.2-2.8,2.2-4.5,2.8
				c-1.7,0.6-3.5,0.9-5.4,0.9C291.4,83.8,289.7,83.3,288.7,82.2z M291.6,51.2c-0.9-0.9-1.4-2-1.4-3.5c0-1.9,0.7-3.4,2-4.5
				c1.3-1,3.2-1.6,5.6-1.6c1.6,0,2.8,0.4,3.8,1.3c1,0.9,1.5,2,1.5,3.5c0,0.2,0,0.6-0.1,1.1c-0.6,3.3-3.1,4.9-7.5,4.9
				C293.8,52.5,292.6,52.1,291.6,51.2z"/>
			<path class="st1" d="M344.4,77.9c0.4,0.8,0.6,1.5,0.7,2.2c-1.3,1.2-2.8,2.2-4.5,2.8c-1.7,0.6-3.5,0.9-5.3,0.9
				c-2.5,0-4.3-0.5-5.3-1.6c-1.1-1.1-1.6-2.6-1.6-4.6c0-1.3,0.2-2.9,0.7-4.7L330,69c0.2-0.9,0.4-1.8,0.4-2.5c0-1.6-0.5-2.5-1.6-2.5
				c-0.9,0-1.9,0.6-3,1.8c-1.1,1.2-2.1,3-3.1,5.5c-1,2.4-1.8,5.4-2.5,9l-0.5,3H308l3-15.8c0.3-1.6,0.4-2.6,0.4-3.1
				c0-0.9-0.3-1.5-0.8-1.8c-0.5-0.3-1.4-0.5-2.8-0.5c0-1.7,0.3-3.2,0.8-4.5c5.3-0.1,9.9-0.9,13.7-2.5c1.3,0.7,1.9,1.7,1.9,3.2
				c0,0.3,0,0.6-0.1,0.7c-0.2,1.3-0.5,2.5-0.8,3.6c-0.3,1.1-0.8,2.4-1.5,3.9v0.2l1-2.2c1.4-2.8,3.2-5.1,5.6-6.8
				c2.4-1.7,4.9-2.6,7.7-2.6c2.1,0,3.8,0.6,4.9,1.8c1.1,1.2,1.7,3,1.7,5.5c0,1.5-0.2,3.1-0.6,4.8l-1.1,5c-0.4,1.8-0.7,3-0.7,3.8
				c0,0.4,0.1,0.7,0.2,0.8c0.1,0.1,0.3,0.2,0.6,0.2c0.4,0,1.1-0.3,2-0.8C343.6,76.6,344,77.1,344.4,77.9z"/>
			<path class="st1" d="M380,66.9c-1.5,1.3-3.8,2.5-6.8,3.6c0.6,0.6,1,1.2,1.4,1.7c0.4,0.5,0.8,1.2,1.3,2.1c0.5,1,0.9,1.6,1.2,1.9
				c0.3,0.3,0.7,0.5,1.2,0.5c0.5,0,0.9-0.2,1.4-0.5c0.5,0.4,0.9,1,1.3,1.8c0.4,0.8,0.6,1.5,0.6,2.2c-2.5,2.4-5.5,3.7-9,3.7
				c-2.1,0-3.7-0.4-4.8-1.2c-1-0.8-1.9-2-2.6-3.7c-0.6-1.6-1.1-2.7-1.5-3.3c-0.3-0.6-0.8-1.4-1.3-2.2c0,0.6-0.2,1.2-0.4,2l-1.6,7.8
				h-11.6l5.4-30.5c0.2-1.3,0.4-2.3,0.4-3c0-0.9-0.3-1.5-0.8-1.8c-0.5-0.3-1.4-0.5-2.8-0.5c0-1.7,0.3-3.2,0.8-4.5
				c5.3-0.1,9.9-0.9,13.7-2.5c0.7,0.6,1.2,1.1,1.4,1.5c0.3,0.5,0.4,1,0.4,1.7c0,0.6-0.1,1.3-0.2,2.1c-0.9,4.9-1.6,8.4-2,10.4
				c-0.5,2-1.3,4.9-2.6,8.6h0.1c1.4-2.9,3.4-5.2,5.9-7c2.5-1.8,5.2-2.7,8-2.7c1.9,0,3.5,0.5,4.7,1.4c1.2,0.9,1.8,2.3,1.8,4.1
				c0,0.2,0,0.7-0.1,1.3C382.5,64,381.5,65.7,380,66.9z M367.2,63.3c-1,0.7-1.9,1.7-2.8,2.9c-0.9,1.3-1.5,2.7-2,4.4
				c3.3-0.6,5.7-1.3,7.1-2.1c1.5-0.8,2.3-2,2.6-3.4c0-0.2,0.1-0.4,0.1-0.7c0-0.6-0.2-1.2-0.6-1.6c-0.4-0.4-1-0.6-1.8-0.6
				C369,62.2,368.1,62.6,367.2,63.3z"/>
		</g>
	</g>
</g>
<g>
	<g>
		<path class="st2" d="M486.7,79.3c0.9,0.4,2.3,0.6,4.2,0.7c0,1.2-0.1,2.1-0.4,2.8c-1.2,0-2.8,0.1-4.7,0.4c-1.9,0.2-3.4,0.5-4.4,0.8
			c-1.3-1.8-2.9-3.8-4.8-6.1c-1.7,2.1-3.5,3.7-5.4,4.7c-1.9,1-4,1.5-6.3,1.5c-3.1,0-5.6-0.7-7.6-2c-2-1.3-3.4-3-4.3-5
			c-0.9-2-1.3-4.2-1.3-6.5c0-2.7,0.7-5.2,2.2-7.4c1.4-2.2,3.4-4.1,5.8-5.8c-1.7-3-2.5-6-2.5-9.1c0-1.6,0.4-3.1,1.2-4.5
			c0.8-1.4,2-2.5,3.5-3.4c1.6-0.9,3.4-1.3,5.4-1.3c1.7,0,3.2,0.2,4.5,0.5c1.3,0.3,2.6,0.9,3.9,1.7c-0.2,1.6-0.4,3.4-0.4,5.3
			c0,0.9,0,1.5,0.1,1.9c-0.7,0.3-1.8,0.5-3.3,0.5c-0.2-2.6-0.7-4.5-1.5-5.6c-0.8-1.1-2.1-1.6-3.8-1.6c-1.4,0-2.6,0.5-3.5,1.4
			c-0.9,1-1.4,2.3-1.4,3.9c0,1.9,0.4,3.6,1.2,5.3c0.8,1.7,2.3,4,4.7,6.9c2.8,3.4,6.3,7.5,10.5,12.1c2-3.3,3.3-6.2,3.8-8.6
			c0.2-0.5,0.2-1.1,0.2-1.7c0-1-0.4-1.8-1.1-2.3c-0.7-0.5-2-1-3.8-1.3c-0.3-1-0.4-1.8-0.4-2.6c1.7,0.1,3.8,0.2,6.3,0.2
			c2.7,0,4.8-0.1,6.2-0.2c0,1-0.1,1.9-0.2,2.5c-1.2,0.5-2.2,1-2.8,1.8c-0.6,0.7-1.1,1.8-1.5,3.3c-0.5,1.8-1.1,3.5-1.9,5.2
			c-0.7,1.7-1.7,3.6-2.9,5.7l3.4,3.7C484.8,78.2,485.7,78.9,486.7,79.3z M470.4,78.4c1.4-0.6,2.8-1.5,4.2-2.9l-4.4-5
			c-3.8-4.3-5.6-6.4-5.5-6.2c-1.8-2.1-3.1-3.8-3.9-5.1c-1.2,1.3-2.2,2.7-2.9,4.2c-0.7,1.5-1.1,3.3-1.1,5.2c0,3.3,0.8,5.9,2.5,7.8
			c1.7,1.9,3.8,2.8,6.3,2.8C467.5,79.3,469,79,470.4,78.4z"/>
	</g>
</g>
<line class="st3" x1="465.7" y1="0.9" x2="465.7" y2="21.6"/>
<line class="st3" x1="466.2" y1="103.4" x2="466.2" y2="124.1"/>
</svg>
