<?xml version="1.0" encoding="utf-8"?>
<!-- Generator: Adobe Illustrator 22.0.1, SVG Export Plug-In . SVG Version: 6.00 Build 0)  -->
<svg version="1.1" id="Layer_1" xmlns="http://www.w3.org/2000/svg" xmlns:xlink="http://www.w3.org/1999/xlink" x="0px" y="0px"
	 viewBox="0 0 167.7 152.8" style="enable-background:new 0 0 167.7 152.8;" xml:space="preserve">
<style type="text/css">
	.st0{fill:none;stroke:#2A2E2F;stroke-miterlimit:10;}
	.st1{fill:none;stroke:#231F20;stroke-miterlimit:10;}
</style>
<g>
	<g>
		<path class="st0" d="M111.2,105.1v15.7H54.8l32.5-49.6c7.1-10.9,8.5-13.8,8.5-18.3c0-6-4.6-10.3-11-10.3c-5,0-8.9,2.5-10.5,6.6
			c-1,2.5-1.3,4.2-1.4,8.9H56.5c-0.1-19.7,11-31.6,29.4-31.6c16.3,0,27.9,10.3,27.9,24.7c0,8.5-3.2,16.3-11.4,28.4l-17.4,25.5H111.2
			z"/>
	</g>
	<path class="st1" d="M145.7,115c12.8-20.6,15-47.1,3.6-70.5C131.6,8.2,87.8-7,51.5,10.7c-6.6,3.2-12.6,7.3-17.7,12.1"/>
	<g>
		<g>
			<path d="M29.5,37.6l-0.5,0.7L25,32.5l0.5-0.6l5,2.1l-3.2-4.4l0.5-0.6l6.5,2.6l-0.6,0.7l-4.9-2l3.1,4.3l-0.5,0.6l-4.9-2.1
				L29.5,37.6z"/>
			<path d="M23.6,41.3l-1.3,2.3l-0.6-0.4l1.3-2.3l-2-1.1l-1.3,2.3l-0.6-0.4l1.7-3l5.8,3.3l-1.7,3l-0.6-0.4l1.3-2.3L23.6,41.3z"/>
			<path d="M22,51.3c-0.5,1.3-1.4,1.7-2.4,1.3c-0.4-0.2-0.7-0.4-0.9-0.8c-0.1-0.2-0.1-0.4-0.1-0.8c-0.2,0.3-0.3,0.5-0.6,0.6
				c-0.4,0.2-0.9,0.2-1.4,0c-0.6-0.2-1-0.7-1.1-1.2c-0.1-0.5,0-0.9,0.3-1.7l0.7-1.7l6.2,2.5L22,51.3z M16.8,48.1l-0.3,0.8
				c-0.3,0.6-0.3,0.9-0.3,1.2c0,0.4,0.3,0.6,0.7,0.8c0.7,0.3,1.2,0,1.6-1l0.4-1L16.8,48.1z M19.6,49.2L19.3,50
				c-0.2,0.5-0.3,0.8-0.2,1.1c0.1,0.3,0.4,0.6,0.7,0.7c0.4,0.2,0.8,0.1,1.1-0.1c0.2-0.2,0.3-0.4,0.6-1l0.3-0.6L19.6,49.2z"/>
			<path d="M18.1,64.7l-0.3,1.8c-0.3,2-1.7,3-3.7,2.7c-1.1-0.2-2-0.7-2.5-1.4c-0.4-0.6-0.6-1.4-0.4-2.4l0.2-1.6L18.1,64.7z M12,64.7
				l0,0.3c-0.2,1.1-0.1,1.6,0.2,2.1c0.4,0.7,1.1,1.1,2.1,1.2c1.6,0.2,2.6-0.5,2.9-2l0.1-0.9L12,64.7z"/>
			<path d="M14.1,75.4l0,2.6l-0.7,0l0-2.6l-2.3,0l0,2.6l-0.7,0l0-3.5l6.7,0l0,3.5l-0.7,0l0-2.6L14.1,75.4z"/>
			<path d="M12.5,83.9c-0.7,0.1-1.1,0.6-1,1.3c0.1,0.7,0.6,1.2,1.3,1.1c0.6-0.1,0.8-0.4,1-1.5c0.2-0.8,0.3-1.1,0.5-1.4
				c0.3-0.4,0.7-0.6,1.2-0.7c1.1-0.1,2,0.6,2.1,1.7c0.1,1.2-0.5,2-1.7,2.2l-0.1-0.8c0.3-0.1,0.5-0.1,0.7-0.2c0.3-0.2,0.4-0.6,0.3-1
				c-0.1-0.7-0.6-1.1-1.2-1c-0.3,0-0.6,0.2-0.7,0.5c-0.1,0.2-0.2,0.4-0.3,1.1c-0.2,0.7-0.3,1.1-0.6,1.4c-0.3,0.3-0.7,0.5-1.1,0.6
				c-1.1,0.1-2-0.6-2.2-1.9c-0.1-0.8,0.1-1.5,0.7-1.9c0.2-0.2,0.5-0.3,0.8-0.3l0.1,0L12.5,83.9z"/>
			<path d="M12.4,93.8L12.2,93l6.5-1.5l0.2,0.8L12.4,93.8z"/>
			<path d="M19.6,104.2c-0.1,0.1-0.3,0.1-0.4,0.1c-0.8,0.3-1.5,0.3-2.2,0.1c-1-0.3-1.7-1-2-1.9c-0.7-1.8,0.2-3.6,2-4.3
				c1.9-0.7,3.7,0.1,4.4,1.8c0.4,0.9,0.3,1.9-0.2,2.8l-0.7-0.4c0.2-0.3,0.2-0.5,0.3-0.7c0.1-0.4,0.1-0.9-0.1-1.4
				c-0.5-1.3-1.9-1.9-3.4-1.3c-1.4,0.5-2.1,1.9-1.6,3.2c0.3,0.7,0.9,1.3,1.6,1.4c0.4,0.1,0.8,0.1,1.3,0l-0.8-2.2l0.7-0.3L19.6,104.2
				z"/>
			<path d="M19.2,111.5l-0.4-0.7l5.8-3.3l0.4,0.7l-2.6,5.6l4.4-2.5l0.4,0.7l-5.8,3.3l-0.4-0.6l2.6-5.7L19.2,111.5z"/>
			<path d="M33.1,129.6l-0.6-0.6l0.2-1.1c-1.1,0-1.6-0.2-2.1-0.6c-0.7-0.8-0.7-1.9,0-2.7c0.6-0.6,1.2-0.6,2.6-0.3
				c0.1-0.8,0.2-1.1,0.5-1.3c0.5-0.5,1.3-0.4,1.9,0.1c0.5,0.5,0.6,1.3,0.1,1.8c-0.2,0.2-0.6,0.4-1,0.4c-0.2,0-0.4,0-0.8-0.1
				l-0.4,2.1c0.6,0,0.7,0,1.4,0l0,0.7c-0.7,0-0.8,0-1.5,0L33.1,129.6z M33.1,124.9c-0.5-0.1-0.7-0.1-0.9-0.2c-0.4,0-0.8,0.1-1,0.3
				c-0.5,0.4-0.5,1.2,0,1.6c0.3,0.3,0.7,0.4,1.6,0.4L33.1,124.9z M35.1,124.3c0.3-0.2,0.2-0.6,0-0.8c-0.3-0.3-0.6-0.3-0.9,0
				c-0.2,0.2-0.2,0.3-0.3,1C34.6,124.6,34.9,124.6,35.1,124.3z"/>
			<path d="M46.8,132l1.5,0.9c1.7,1,2.1,2.7,1.1,4.4c-0.6,1-1.4,1.6-2.3,1.7c-0.8,0.1-1.6,0-2.4-0.6l-1.4-0.8L46.8,132z M44.4,137.5
				l0.3,0.2c1,0.6,1.4,0.7,2,0.7c0.8-0.1,1.4-0.6,1.9-1.4c0.8-1.4,0.6-2.6-0.7-3.4l-0.8-0.5L44.4,137.5z"/>
			<path d="M55.1,139.8l2.4,1l-0.3,0.7l-2.4-1l-0.9,2.1l2.4,1l-0.3,0.7l-3.2-1.4l2.7-6.1l3.2,1.4l-0.3,0.7l-2.4-1L55.1,139.8z"/>
			<path d="M67.1,140.9l0.9,0.2l-4,5.8l-0.8-0.2l-0.4-7l0.8,0.2l0.3,5.6L67.1,140.9z"/>
			<path d="M72.7,145.1l2.6,0.4l-0.1,0.7l-2.6-0.4l-0.3,2.3l2.6,0.4l-0.1,0.7l-3.4-0.5l1-6.6l3.4,0.5l-0.1,0.7l-2.6-0.4L72.7,145.1z
				"/>
			<path d="M83.8,148.9l0,0.8l-3.2-0.1l0.2-6.7l0.8,0l-0.1,5.9L83.8,148.9z"/>
			<path d="M93.7,143.3c0.6,0.6,0.9,1.3,1,2.3c0.1,1-0.2,2-0.8,2.7c-0.5,0.6-1.3,1-2,1c-1,0.1-2-0.2-2.7-0.9
				c-0.5-0.5-0.8-1.2-0.9-2.1c-0.2-2,1-3.6,2.9-3.8C92.1,142.3,93,142.7,93.7,143.3z M89.1,146.2c0.2,1.5,1.3,2.5,2.7,2.4
				c0.7-0.1,1.3-0.4,1.7-1c0.3-0.5,0.5-1.2,0.4-1.9c-0.1-0.9-0.4-1.5-1-1.9c-0.5-0.4-1.1-0.6-1.7-0.5
				C89.8,143.4,88.9,144.6,89.1,146.2z"/>
			<path d="M101.7,147.4l-0.8,0.2l-1.8-6.4l1.7-0.5c1.5-0.4,2.6,0,2.9,1.3c0.2,0.6,0.1,1.3-0.3,1.7c-0.3,0.4-0.8,0.7-1.5,0.9l-1,0.3
				L101.7,147.4z M101.7,144c0.3-0.1,0.6-0.2,0.8-0.3c0.4-0.3,0.6-0.8,0.5-1.4c-0.2-0.5-0.6-0.9-1.1-0.9c-0.3,0-0.5,0-0.9,0.1
				l-0.7,0.2l0.7,2.6L101.7,144z"/>
			<path d="M111.1,144.3l-0.8,0.3l-2.7-6.1l0.8-0.3l4.3,3.6l0.2-5.6l0.8-0.3l2.7,6.1l-0.8,0.3l-2-4.5l-0.2,5.5l-4.3-3.5L111.1,144.3
				z"/>
			<path d="M120.5,135.3l2.2-1.4l0.4,0.6l-2.2,1.4l1.2,1.9l2.2-1.4l0.4,0.6l-2.9,1.9l-3.6-5.6l2.9-1.9l0.4,0.6l-2.2,1.4L120.5,135.3
				z"/>
			<path d="M130.1,133l-0.6,0.5l-4.4-5.1l0.6-0.5l6,1.5l-3.3-3.8l0.6-0.5l4.4,5.1l-0.6,0.5l-6.1-1.5L130.1,133z"/>
			<path d="M138.9,124.3l-0.6,0.6l-4.5-3.9l-1.1,1.3l-0.5-0.5l2.8-3.2l0.5,0.5l-1.1,1.3L138.9,124.3z"/>
		</g>
	</g>
</g>
</svg>
